<?xml version='1.0' encoding='UTF-8'?>
<!DOCTYPE svg PUBLIC "-//W3C//DTD SVG 1.0//EN" "http://www.w3.org/TR/2001/REC-SVG-20010904/DTD/svg10.dtd">
<svg viewBox="0 0 456 444" xmlns="http://www.w3.org/2000/svg" xmlns:inkspace="http://www.inkscape.org/namespaces/inkscape" xmlns:xlink="http://www.w3.org/1999/xlink">
  <defs id="defs_block">
    <filter height="1.504" id="filter_blur" inkspace:collect="always" width="1.1575" x="-0.07875" y="-0.252">
      <feGaussianBlur id="feGaussianBlur3780" inkspace:collect="always" stdDeviation="4.2" />
    </filter>
  </defs>
  <title>blockdiag</title>
  <desc>nwdiag {
    default_fontsize = 14
    network DMZ {
        address = "192.0.2.0/24"

        WEB [address = "192.0.2.11"];
    }
    network DB {
        address = "10.10.10.0/24"

        WEB [address = "10.10.10.11"];
        DB [address = "10.10.10.21"];
    }
}
</desc>
  <rect fill="rgb(0,0,0)" height="40" stroke="rgb(0,0,0)" style="filter:url(#filter_blur);opacity:0.7;fill-opacity:1" width="104" x="155" y="162" />
  <rect fill="rgb(0,0,0)" height="40" stroke="rgb(0,0,0)" style="filter:url(#filter_blur);opacity:0.7;fill-opacity:1" width="104" x="307" y="306" />
  <path d="M 131 103 L 283 103 A2,4 0 0 1 283 111 L 131 111 A2,4 0 0 1 131 103" fill="rgb(0,0,0)" style="filter:url(#filter_blur)" />
  <path d="M 131 247 L 435 247 A2,4 0 0 1 435 255 L 131 255 A2,4 0 0 1 131 247" fill="rgb(0,0,0)" style="filter:url(#filter_blur)" />
  <path d="M 128 100 L 280 100 A2,4 0 0 1 280 108 L 128 108 A2,4 0 0 1 128 100" fill="rgb(185,203,228)" stroke="rgb(0,0,0)" />
  <path d="M 280 108 A2,4 0 0 1 280 100" fill="none" stroke="rgb(0,0,0)" />
  <path d="M 128 100 L 280 100" fill="none" stroke="none" />
  <path d="M 204 35 L 204 100" fill="none" stroke="rgb(0,0,0)" />
  <path d="M 128 244 L 432 244 A2,4 0 0 1 432 252 L 128 252 A2,4 0 0 1 128 244" fill="rgb(185,203,228)" stroke="rgb(0,0,0)" />
  <path d="M 432 252 A2,4 0 0 1 432 244" fill="none" stroke="rgb(0,0,0)" />
  <path d="M 128 244 L 432 244" fill="none" stroke="none" />
  <text fill="rgb(0,0,0)" font-family="sans-serif" font-size="14" font-style="normal" font-weight="normal" text-anchor="middle" textLength="33" x="103" y="102">DMZ</text>
  <text fill="rgb(0,0,0)" font-family="sans-serif" font-size="14" font-style="normal" font-weight="normal" text-anchor="middle" textLength="91" x="74" y="118">192.0.2.0/24</text>
  <text fill="rgb(0,0,0)" font-family="sans-serif" font-size="14" font-style="normal" font-weight="normal" text-anchor="middle" textLength="20" x="110" y="246">DB</text>
  <text fill="rgb(0,0,0)" font-family="sans-serif" font-size="14" font-style="normal" font-weight="normal" text-anchor="middle" textLength="100" x="70" y="262">10.10.10.0/24</text>
  <path d="M 204 108 L 204 156" fill="none" stroke="rgb(0,0,0)" />
  <text fill="rgb(0,0,0)" font-family="sans-serif" font-size="14" font-style="normal" font-weight="normal" text-anchor="middle" textLength="75" x="253" y="136">192.0.2.11</text>
  <path d="M 204 196 L 204 244" fill="none" stroke="rgb(0,0,0)" />
  <text fill="rgb(0,0,0)" font-family="sans-serif" font-size="14" font-style="normal" font-weight="normal" text-anchor="middle" textLength="84" x="258" y="224">10.10.10.11</text>
  <rect fill="rgb(255,255,255)" height="40" stroke="rgb(0,0,0)" width="104" x="152" y="156" />
  <text fill="rgb(0,0,0)" font-family="sans-serif" font-size="14" font-style="normal" font-weight="normal" text-anchor="middle" textLength="30" x="204" y="182">WEB</text>
  <path d="M 356 252 L 356 300" fill="none" stroke="rgb(0,0,0)" />
  <text fill="rgb(0,0,0)" font-family="sans-serif" font-size="14" font-style="normal" font-weight="normal" text-anchor="middle" textLength="84" x="410" y="280">10.10.10.21</text>
  <rect fill="rgb(255,255,255)" height="40" stroke="rgb(0,0,0)" width="104" x="304" y="300" />
  <text fill="rgb(0,0,0)" font-family="sans-serif" font-size="14" font-style="normal" font-weight="normal" text-anchor="middle" textLength="20" x="356" y="326">DB</text>
</svg>
